<?xml version="1.0" encoding="utf-8"?>
<!-- Generator: Adobe Illustrator 24.3.0, SVG Export Plug-In . SVG Version: 6.00 Build 0)  -->
<svg version="1.1" id="Layer_1" xmlns="http://www.w3.org/2000/svg" xmlns:xlink="http://www.w3.org/1999/xlink" x="0px" y="0px"
	 viewBox="0 0 792.1 785" style="enable-background:new 0 0 792.1 785;" xml:space="preserve">
<style type="text/css">
	.st0{fill:#D1315A;}
	.st1{fill:#545454;}
</style>
<g>
	<path class="st0" d="M298.6,381.7h33.2c0.7,1.3,1.1,3.7,2.5,4.6c3.5,2.2,7.7,5.3,11.1,4.8c3-0.4,7.5-5.2,7.6-8.1
		c0.6-20.2,0.7-40.5-0.3-60.7c-0.2-3.1-6.8-8.4-10.2-8.1c-3.4,0.3-7.9,5.6-9.2,9.6c-1.6,5.2-0.4,11.2-0.5,16.9
		c0,5.6-2.6,9.4-8.3,9.6c-10.7,0.3-21.4,0.2-32.1,0c-1.5,0-3-1.6-4.5-2.4c0.2-0.8,0.3-1.7,0.5-2.5c7.8,0,15.5,0.1,23.3,0
		c12-0.1,16.1-4.2,16.2-16c0.1-11,0.2-22,0-33.1c-0.2-9.4-4.3-13.5-13.7-13.7c-12.8-0.2-25.6,0-38.3-0.1c-2.8,0-5.6-0.4-10.2-0.8
		c2.5-3,3.6-4.7,5-5.8c39.2-30,78.5-59.8,117.6-90c4.6-3.5,7.4-2.8,11.5,0.3c38.4,29.6,76.9,59,115.5,88.3c4.2,3.2,5.2,5.8,3.6,11
		c-15,47.6-29.7,95.3-44.2,143.1c-1.7,5.5-3.9,7.5-9.8,7.5c-47.3-0.2-94.5-0.2-141.8,0c-5.5,0-8.4-1.1-10.1-7.1
		C308.9,413.4,303.8,398.3,298.6,381.7 M383.5,375.4V274.1c6.4,0,12.2,0.1,18.1,0c6.6-0.2,9.1-3.5,6.7-10
		c-3.9-10.6-7.4-21.4-11.8-31.7c-1.1-2.6-4.8-5.4-7.7-5.8c-5.8-0.9-11.9-0.8-17.8,0c-2.6,0.3-6.2,2.8-7.2,5.1
		c-4.5,10.7-8.3,21.6-12.2,32.6c-2.5,7.1,0.6,10.1,7.7,10c5.8-0.1,11.6,0,17.5,0v101c-12,2.2-12.3,2.7-10.8,16.1h27.8
		C395,377.8,394.6,377.2,383.5,375.4"/>
	<path class="st0" d="M71.9,480.1c-2.6-6.8-5-13.8-7-20.7c-1.3-4.5-2.5-9.1-3.5-13.6c-5.9-26.6-8.8-53.9-10.3-81.1
		c-0.1-0.9-0.2-2-0.2-2.9c-2.9,40.8,3.2,80.3,17.3,118.6c8.2,24.5,20.3,47.5,35.7,68.1C92.5,526.3,80.8,503.6,71.9,480.1z"/>
	<path class="st0" d="M210.5,52.1c9.5-4.6,19-9.2,28.5-13.7l-0.5-0.7c-1.8,0.1-3.5,0.1-5.3,0.2l0.1,0l-3.6,1.8l0.1-0.1
		c-1.2,0.6-2.4,1.2-3.6,1.8l0.1,0c-1.2,0.6-2.4,1.2-3.6,1.8l0,0L219,45l0,0c-1.2,0.6-2.4,1.2-3.6,1.8l0,0c-1.2,0.6-2.4,1.2-3.6,1.8
		l0,0c-0.5,1.1-1.1,2.2-1.6,3.4C210.4,51.9,210.4,52,210.5,52.1"/>
	<path class="st0" d="M645.4,697.4c-1.1,1.3-2.1,2.7-3.2,4c-0.4-0.4-0.7-0.8-1.1-1.1C642.6,699.3,644,698.4,645.4,697.4L645.4,697.4
		z"/>
	<path class="st0" d="M618.9,719.2c-1.1,0.6-2.3,1.3-3.4,1.9l-0.6-0.6c1.1-0.8,2.1-1.5,3.2-2.3C618.4,718.5,618.7,718.9,618.9,719.2
		"/>
	<polyline class="st0" points="645.5,697.5 645.4,697.4 645.5,697.5 	"/>
	<path class="st0" d="M615.5,721.1c-0.4,0.4-0.8,0.7-1.3,1.1l0.7-1.6C614.9,720.5,615.5,721.1,615.5,721.1"/>
	<path class="st0" d="M427.9,762.2h-52.2c0-0.4-0.1-0.8-0.1-1.2h52C427.7,761.4,427.8,761.8,427.9,762.2"/>
	<path class="st0" d="M37.8,435.6c0.6,0,1.2,0.1,1.8,0.1c2.9,10.2,5.7,20.3,8.5,30.5c-0.7,0-1.5,0-2.2,0
		C43.1,456,40.5,445.8,37.8,435.6"/>
	<path class="st0" d="M239.5,726.4c1.2-0.1,2.5-0.2,3.7-0.2c0,0.4,0,0.7,0,1.1h-3.7C239.5,727,239.5,726.7,239.5,726.4"/>
	<path class="st0" d="M51.4,477c-0.1,1-0.2,1.9-0.3,2.9c0,0-0.6,0-0.6,0c-0.2-0.9-0.3-1.9-0.4-2.8C50.6,477.1,51,477.1,51.4,477"/>
	<path class="st0" d="M49.6,471.7c-0.1,0.9-0.1,1.8-0.2,2.8c0,0-0.5,0-0.5,0c-0.2-0.9-0.3-1.8-0.5-2.7
		C48.8,471.8,49.2,471.8,49.6,471.7"/>
	<path class="st0" d="M45.8,466.2c0.7,0,1.5,0,2.2,0c-0.1,1-0.2,2.1-0.4,3.1C47.1,468.3,46.5,467.2,45.8,466.2"/>
	<path class="st0" d="M215.4,46.8c-1.2,0.6-2.4,1.2-3.6,1.8C213.1,47.9,214.2,47.3,215.4,46.8"/>
	<path class="st0" d="M273.5,763.5C273.5,763.5,273.5,763.5,273.5,763.5L273.5,763.5z"/>
	<path class="st0" d="M268.2,761.7c0,0,0.1,0.1,0.1,0.1L268.2,761.7z"/>
	<path class="st0" d="M253.9,756.3"/>
	<path class="st0" d="M-8.2,344.5L-8.2,344.5c-0.1,0-0.1,0-0.2,0C-8.3,344.5-8.3,344.5-8.2,344.5"/>
	<g>
		<path class="st1" d="M165.7,485.8c3.8,3.3,5.7,8,5.7,13.9c0,3.4-0.7,6.6-2,9.5c-1.3,2.9-3.5,5.3-6.5,7.2c-3,1.9-6.8,2.8-11.5,2.8
			h-8.5v20.5h-9.5v-59h16.7C156.6,480.8,161.9,482.5,165.7,485.8z M157.5,508.5c1.6-1.1,2.7-2.5,3.4-4s1-3.1,1-4.6
			c0-2.5-0.8-4.8-2.4-6.9c-1.6-2.1-4.3-3.2-8.1-3.2h-8.8v20.3h8.5C153.8,510.2,155.9,509.6,157.5,508.5z"/>
		<path class="st1" d="M228,480.8v9.1h-29.7v15.7h26.4v9.1h-26.4v16h30.8v9.1h-40.3v-59H228z"/>
		<polygon class="st1" points="291.2,480.8 291.3,520.5 250.2,480 248.5,480 248.5,539.8 258,539.8 257.8,500.6 300.3,541.9 
			300.6,541.9 300.6,480.8 		"/>
		<path class="st1" d="M358.3,480.8v9.1h-15.2v49.9h-9.4v-49.9h-14.8v-9.1H358.3z"/>
		<path class="st1" d="M393.6,481.5h-3.2l-24.8,58.3h9.3l5.7-13.9h21.5l5.4,13.9h10.9L393.6,481.5z M383.9,517.8l7.6-18.6l7.4,18.6
			H383.9z"/>
		<path class="st1" d="M470.8,538.5c-4,1.3-7.7,1.9-11.1,1.9c-6.2,0-11.7-1.2-16.4-3.7c-4.7-2.5-8.3-5.9-10.9-10.2
			c-2.5-4.3-3.8-9.3-3.8-14.8c0-6.6,1.4-12.3,4.1-17.1c2.7-4.8,6.4-8.3,11-10.8c4.6-2.4,9.7-3.6,15.2-3.6c3.4,0,6.6,0.4,9.7,1.2
			c3.1,0.8,5.7,1.8,8.1,3.1l-3.1,8.8c-1.6-1-3.8-1.8-6.4-2.5c-2.7-0.7-5-1.1-7-1.1c-6.8,0-12.1,1.9-16,5.6
			c-3.9,3.7-5.8,8.9-5.8,15.6c0,4,0.9,7.5,2.7,10.6c1.8,3.1,4.3,5.4,7.6,7.1c3.3,1.7,7,2.5,11.2,2.5c1.9,0,3.7-0.2,5.4-0.5
			c1.7-0.4,3.2-0.9,4.4-1.5v-9.8h-11.1v-9.1h20.6v24.2C477.7,535.9,474.9,537.2,470.8,538.5z"/>
		<path class="st1" d="M532.1,539.8l-13.3-20.5h-1h-8.5v20.5h-9.5v-59h16.6c6.6,0,11.9,1.7,15.8,5c4,3.3,6,8,6,13.9
			c0,3.6-0.8,7-2.3,10.1c-1.5,3.1-4,5.5-7.3,7.2l14.3,22.8H532.1z M509.3,510.2h8.4c3.8,0,6.5-1,8.2-3.1c1.7-2.1,2.6-4.4,2.6-7
			c0-1.5-0.3-3-1-4.6c-0.6-1.5-1.8-2.9-3.3-4c-1.6-1.1-3.6-1.7-6.2-1.7h-8.8V510.2z"/>
		<path class="st1" d="M578.7,482l-24.6,57.8h9.3l5.7-13.9h21.5l5.4,13.9h10.9L582.4,482H578.7z M572.5,517.8l7.6-18.6l7.4,18.6
			H572.5z"/>
		<polygon class="st1" points="680.3,482 652.7,520.3 625.6,482 623.2,482 623.2,539.8 632.4,539.8 632.4,507 652.6,535 652.7,535 
			673.4,505.7 673.4,539.8 682.8,539.8 682.8,482 		"/>
	</g>
	<g>
		<path class="st1" d="M230.7,568.7l-8.2,14.2v7.8H221v-7.8l-8.2-14.2h1.9l7.2,12.5l7.1-12.5H230.7z"/>
		<path class="st1" d="M240,574.1c1-1.7,2.4-3.1,4.1-4.1c1.7-1,3.6-1.5,5.6-1.5c2,0,3.9,0.5,5.6,1.5c1.7,1,3.1,2.4,4.1,4.1
			c1,1.7,1.5,3.6,1.5,5.6c0,2-0.5,3.9-1.5,5.6c-1,1.7-2.4,3.1-4.1,4.1c-1.7,1-3.6,1.5-5.6,1.5c-2,0-3.9-0.5-5.6-1.5
			c-1.7-1-3.1-2.3-4.1-4c-1-1.7-1.5-3.6-1.5-5.7C238.5,577.7,239,575.8,240,574.1z M241.3,584.6c0.9,1.5,2,2.7,3.5,3.5
			c1.5,0.9,3.1,1.3,4.8,1.3c1.8,0,3.4-0.4,4.9-1.3c1.5-0.9,2.7-2.1,3.5-3.5c0.9-1.5,1.3-3.1,1.3-4.9c0-1.8-0.4-3.4-1.3-4.9
			c-0.9-1.5-2.1-2.7-3.5-3.6c-1.5-0.9-3.1-1.3-4.9-1.3c-1.8,0-3.4,0.4-4.9,1.3c-1.5,0.9-2.7,2.1-3.5,3.6c-0.8,1.5-1.3,3.1-1.3,4.9
			S240.4,583.2,241.3,584.6z"/>
		<path class="st1" d="M274.4,586.6c0.5,0.9,1.2,1.7,2.2,2.2c0.9,0.5,2,0.8,3.1,0.8c1.2,0,2.2-0.3,3.1-0.8c0.9-0.5,1.6-1.2,2.2-2.2
			c0.5-0.9,0.8-2,0.8-3.3v-14.6h1.5v14.7c0,1.6-0.3,2.9-1,4.1c-0.7,1.1-1.6,2-2.7,2.6c-1.1,0.6-2.4,0.9-3.9,0.9
			c-1.4,0-2.7-0.3-3.9-0.9c-1.1-0.6-2.1-1.5-2.7-2.6c-0.7-1.1-1-2.5-1-4.1v-14.7h1.5v14.6C273.7,584.5,273.9,585.6,274.4,586.6z"/>
		<path class="st1" d="M312.2,590.7l-5.8-9.4c-0.4,0.1-1,0.1-1.6,0.1h-3.4v9.2h-1.5v-22h5c1.2,0,2.3,0.2,3.3,0.7
			c1.1,0.5,1.9,1.1,2.6,2.1c0.7,0.9,1,2.1,1,3.5c0,1.3-0.3,2.6-0.9,3.6c-0.6,1.1-1.6,1.9-2.9,2.4l5.9,9.8H312.2z M309,578.5
			c0.9-1,1.3-2.2,1.3-3.5c0-0.9-0.2-1.7-0.6-2.4c-0.4-0.7-1-1.3-1.8-1.8c-0.8-0.4-1.7-0.7-2.7-0.7h-3.7v9.9h3.3
			C306.7,580,308.2,579.5,309,578.5z"/>
		<path class="st1" d="M356.8,590.7h-1.5v-10.3H342v10.3h-1.5v-22h1.5v10.2h13.3v-10.2h1.5V590.7z"/>
		<path class="st1" d="M369.6,574.1c1-1.7,2.4-3.1,4.1-4.1c1.7-1,3.6-1.5,5.6-1.5c2,0,3.9,0.5,5.6,1.5c1.7,1,3.1,2.4,4.1,4.1
			c1,1.7,1.5,3.6,1.5,5.6c0,2-0.5,3.9-1.5,5.6c-1,1.7-2.4,3.1-4.1,4.1c-1.7,1-3.6,1.5-5.6,1.5c-2,0-3.9-0.5-5.6-1.5
			c-1.7-1-3.1-2.3-4.1-4c-1-1.7-1.5-3.6-1.5-5.7C368.1,577.7,368.6,575.8,369.6,574.1z M370.9,584.6c0.9,1.5,2,2.7,3.5,3.5
			c1.5,0.9,3.1,1.3,4.8,1.3c1.8,0,3.4-0.4,4.9-1.3c1.5-0.9,2.7-2.1,3.5-3.5c0.9-1.5,1.3-3.1,1.3-4.9c0-1.8-0.4-3.4-1.3-4.9
			c-0.9-1.5-2.1-2.7-3.5-3.6c-1.5-0.9-3.1-1.3-4.9-1.3c-1.8,0-3.4,0.4-4.9,1.3c-1.5,0.9-2.7,2.1-3.5,3.6c-0.8,1.5-1.3,3.1-1.3,4.9
			S370.1,583.2,370.9,584.6z"/>
		<path class="st1" d="M423,568.2v22.5h-1.5v-18.1l-9,12.7h-0.1l-9-12.6v17.9h-1.5v-22.5h0l10.5,14.9L423,568.2L423,568.2z"/>
		<path class="st1" d="M449.3,568.7v1.5h-12.1v8.7h10.8v1.5h-10.8v8.9h12.5v1.5h-14v-22H449.3z"/>
		<path class="st1" d="M490,568.7v1.5H478v8.7h10.8v1.5H478v8.9h12.5v1.5h-14v-22H490z"/>
		<path class="st1" d="M514.4,590.7l-6.5-10l-6.2,10h-1.9l7.2-11.3l-6.9-10.7h1.9l6.2,9.5l5.9-9.5h1.8l-6.9,10.8l7.3,11.2H514.4z"/>
		<path class="st1" d="M537,570.3c1.2,1.1,1.8,2.6,1.8,4.6c0,1.2-0.2,2.2-0.7,3.2s-1.3,1.8-2.3,2.4c-1,0.6-2.4,0.9-3.9,0.9h-3.4v9.2
			h-1.5v-22h5.1C534.1,568.7,535.8,569.2,537,570.3z M535.1,579.2c0.8-0.5,1.4-1.2,1.8-2c0.3-0.8,0.5-1.5,0.5-2.3
			c0-1.4-0.5-2.6-1.4-3.5c-0.9-0.9-2.2-1.3-3.8-1.3h-3.7v9.9h3.4C533.2,580,534.3,579.8,535.1,579.2z"/>
		<path class="st1" d="M563.4,568.7v1.5h-12.1v8.7h10.8v1.5h-10.8v8.9h12.5v1.5h-14v-22H563.4z"/>
		<path class="st1" d="M587.7,590.7l-5.8-9.4c-0.4,0.1-1,0.1-1.6,0.1h-3.4v9.2h-1.5v-22h5c1.2,0,2.3,0.2,3.3,0.7
			c1.1,0.5,1.9,1.1,2.6,2.1c0.7,0.9,1,2.1,1,3.5c0,1.3-0.3,2.6-0.9,3.6c-0.6,1.1-1.6,1.9-2.9,2.4l5.9,9.8H587.7z M584.5,578.5
			c0.9-1,1.3-2.2,1.3-3.5c0-0.9-0.2-1.7-0.6-2.4c-0.4-0.7-1-1.3-1.8-1.8c-0.8-0.4-1.7-0.7-2.7-0.7h-3.7v9.9h3.3
			C582.2,580,583.6,579.5,584.5,578.5z"/>
		<path class="st1" d="M613.2,568.7v1.5h-6.5v20.5h-1.5v-20.5h-6.4v-1.5H613.2z"/>
	</g>
	<path class="st0" d="M422.6,784.7c11.9-1,23.8-2.5,35.6-4.4c2.9-0.5,5.9-1.1,8.8-1.6c2.9-0.5,5.9-1.1,8.8-1.8l8.7-1.9l8.7-2.2
		c23.1-5.9,45.6-13.9,67.2-24c21.5-10.1,42.2-22,61.6-35.8c19.2-13.9,37.5-29.4,54.1-46.3c16.5-17,31.7-35.5,44.3-55.6
		c12.8-20,23.2-41.5,31.5-63.8c4.3-11.1,7.7-22.5,10.5-34.1c2.8-11.6,5-23.3,6.6-35.1c3.3-23.6,4-47.6,2.4-71.4
		c2.7,23.8,2.5,47.9,0,71.7c-1.4,11.9-3.4,23.8-6,35.5c-2.7,11.7-5.9,23.3-10,34.6c-15.7,45.5-42.3,87-75.9,121.5
		c-16.9,17.1-35.4,32.5-55,46.5c-19.7,13.8-40.6,25.9-62.6,35.6C517.9,771.6,470.4,782.6,422.6,784.7"/>
	<g>
		<path class="st0" d="M70.1,174C114.1,110.9,177.9,61.9,250,35C330.5,4.9,415.3-3.9,499.8,14.7c34,7.5,67.1,19.2,98.1,35
			C539.9,14,465.6-0.7,398,0c-89.4,1-178.5,31.3-249.2,86.3c-12.4,9.7-24.3,20.1-35.5,31.3C67.6,163.3,33,220.3,14.7,282.4
			c13.7-36.1,30.3-71.2,51.8-103.2C67.7,177.4,68.9,175.7,70.1,174z"/>
		<path class="st0" d="M80.9,173.8c10.6-15.3,37.4-51,85.1-84.8c106.4-75.2,225.1-75.9,224.7-75.9c-80.2,3.9-159.8,28-226.1,74
			C131.4,110.2,102,139,78,171.7c-67,91.8-88,212.8-58.9,323c0.6,2.2,1.2,4.4,1.8,6.6C50.2,604.4,124,694.1,219.6,742.8
			s211.5,55.6,312.2,18.7c-51.1,14.2-104.7,19.1-157.5,14.5c148.4,9.5,298-82.5,356.5-219.2C701.7,604,667.7,648.9,624.7,684
			c-43,35.1-95.6,60.1-151,63.5C581.3,722,673.3,638.6,709.2,534c-52.5,117.9-176.5,200.3-305.6,203c-129,2.7-256.4-74.4-313.8-190
			c56.7,104.3,173.6,173,292.3,171.8c-101.2-0.9-200.4-53.9-258.2-137.1s-73-194.1-40.6-290S194.6,117,290.3,83.9
			c64.5-22.3,135.8-24.4,201.4-5.8C609.5,111.2,703,209.7,744.7,324.7c-29-125.1-133.5-228.7-258.2-259.5S222.7,76,133.1,168
			C233.1,60.2,398.9,18.9,537.8,67.4c138.9,48.5,243,183.9,254.2,330.6c2.2-89.7-39.6-177.2-102.6-241
			C615.7,82.3,512.1,37.6,407.3,37.5c-104.8,0-209.3,45.2-279.2,123.4S24.8,349.1,41.7,452.5C24.3,368.7,43.3,279.1,88,206.1
			c44.7-73,113.7-129.6,191.6-165.3c-24,11-48.3,19.2-71.3,32.6c-23.1,13.5-44.7,29.4-64.6,47.3C102.6,158,69.5,204.2,47.4,255
			C37,279.1,29,304.3,23.9,330c-17.4,88.2-0.7,182,42.5,260.5c21.8,39.6,50.6,75.5,85.1,104.8c8.5,7.2,17.4,14,26.5,20.4
			c-13.3-8.7-26-18.2-38.1-28.6c-34.1-29.1-62.1-64.9-82.7-104.6c-14.3-27.6-25.3-56.9-31.9-87.3c-0.2-0.9-0.5-2-0.3-2.6
			c-2.6-4.9-2.2-10.6-2.9-15.9c-0.8-6.1-2.2-12.2-3-18.4c-1.6-11.9-2.6-23.8-3-35.7c-0.5-12-0.4-24,0.1-35.9c0.5-12,1.5-24,2.9-35.9
			c1.4-12,3.3-23.9,5.5-35.7c0.9-5,3.5-18.3,7.7-35.3c0,0,0.9-3.4,1.6-6.5C47.5,221.9,80.9,173.8,80.9,173.8z M428.6,761
			c0.1,0.4,0.2,0.8,0.3,1.2h-52.2c0-0.4-0.1-0.8-0.1-1.2H428.6z M244.1,726.2c0,0.4,0,0.7,0,1.1h-3.7c0-0.3,0-0.6-0.1-0.8
			C241.7,726.3,242.9,726.3,244.1,726.2z M71.6,504.6c-0.1,1-0.2,1.9-0.3,2.9c0,0-0.6,0-0.6,0c-0.2-0.9-0.3-1.9-0.4-2.8
			C70.7,504.6,71.2,504.6,71.6,504.6z M69.8,499.3c-0.1,0.9-0.1,1.8-0.2,2.8c0,0-0.5,0-0.5,0c-0.2-0.9-0.3-1.8-0.5-2.7
			C69,499.3,69.4,499.3,69.8,499.3z M68.2,493.7c-0.1,1-0.2,2.1-0.4,3.1c-0.6-1-1.3-2.1-1.9-3.1c-2.7-10.2-5.4-20.4-8.1-30.6
			c0.6,0,1.2,0.1,1.8,0.1C62.5,473.4,65.4,483.6,68.2,493.7z M105.9,202.2c-0.2-0.1-0.3-0.2-0.5-0.4c0.2-0.2,0.5-0.4,0.7-0.5
			c-0.2-0.2-0.4-0.4-0.6-0.6c0.2-0.1,0.3-0.2,0.5-0.2c0.3,0,0.7,0.5,1.1,0.8C106.7,201.6,106.3,201.9,105.9,202.2z M127.5,177.5
			c-6,6.9-12.1,13.9-18.1,20.8c0.1-2.2,1-3.2,2.5-4.8c1.4-1.5,2.9-3.1,4.3-4.6c2.8-3,14.3-17.5,14.9-16.7c0.1,0.2,0.2,0.4,0.2,0.6
			c0,0.3-0.2,0.5-0.4,0.7C129.8,174.8,128.6,176.1,127.5,177.5z"/>
		<path class="st0" d="M60.1,216.2"/>
	</g>
</g>
<g>
</g>
<g>
</g>
<g>
</g>
<g>
</g>
<g>
</g>
<g>
</g>
</svg>
